<?xml version="1.0" encoding="UTF-8" standalone="no"?>
<!-- Created with Inkscape (http://www.inkscape.org/) -->

<svg
   xmlns:dc="http://purl.org/dc/elements/1.1/"
   xmlns:cc="http://creativecommons.org/ns#"
   xmlns:rdf="http://www.w3.org/1999/02/22-rdf-syntax-ns#"
   xmlns:svg="http://www.w3.org/2000/svg"
   xmlns="http://www.w3.org/2000/svg"
   version="1.1"
   width="457.15771"
   height="126.39188"
   id="svg4275">
  <defs
     id="defs4277" />
  <g
     transform="translate(-162.84969,-529.16624)"
     id="layer1">
    <path
       d="m 617.64814,530.16624 c -2.81418,0 -10.25485,3.50975 -16.64897,9.88473 -6.38137,6.38774 -9.87197,13.73907 -9.87197,25.07875 l 0,41.49161 c 0,16.69365 -10.98232,23.85991 -27.1846,23.85991 l -0.0128,0 c -16.18952,0 -27.17184,-7.16626 -27.17184,-23.85991 l 0,-41.49161 c 0,-11.33968 -3.49061,-18.69101 -9.88473,-25.07875 -6.36856,-6.37498 -13.80923,-9.88473 -16.62341,-9.88473 -1.02101,0 -1.35923,0.76577 -1.35923,1.35923 l 0,77.79518 c 0,33.77016 29.30322,45.23747 55.03925,45.23747 l 0.0128,0 c 25.74879,0 55.06477,-11.46731 55.06477,-45.23747 l 0,-77.79518 c -4e-5,-0.59346 -0.35102,-1.35923 -1.35927,-1.35923"
       id="path4019"
       style="fill:#f68712;fill-opacity:1;fill-rule:nonzero;stroke:none" />
    <path
       d="m 457.34131,580.98671 c 0,-3.22897 2.24624,-4.8626 5.69855,-5.06681 4.42229,-0.26801 11.92677,1.48686 11.92677,1.48686 l 0,-9.5848 -0.0128,0 c -0.10211,-0.0191 -5.57093,-1.05931 -10.15913,-1.05931 -10.91851,0 -18.73568,5.15614 -18.73568,14.90048 0,15.2004 20.51608,13.63059 20.51608,21.90721 0,3.32469 -1.80593,4.86898 -5.8198,5.24548 -5.63475,0.52327 -13.88585,-2.89075 -13.88585,-2.89075 l 0,10.19103 c 0,0 5.62198,1.8506 12.55214,1.8506 10.69516,0 18.37194,-5.01576 18.37194,-15.43014 0,-14.46016 -20.45226,-13.93689 -20.45226,-21.54985 m -236.35925,0 c 0,-3.22897 2.25262,-4.8626 5.69856,-5.06681 4.43504,-0.26801 11.92676,1.48686 11.92676,1.48686 l 0,-9.5848 -0.0128,0 c -0.1021,-0.0191 -5.57093,-1.05931 -10.14636,-1.05931 -10.91851,0 -18.73568,5.15614 -18.73568,14.90048 0,15.2004 20.50331,13.63059 20.50331,21.90721 0,3.32469 -1.79316,4.86898 -5.8198,5.24548 -5.63474,0.52327 -13.88584,-2.89075 -13.88584,-2.89075 l 0,10.19103 c 0,0 5.63474,1.8506 12.5649,1.8506 10.6824,0 18.35918,-5.01576 18.35918,-15.43014 0,-14.46016 -20.45227,-13.93689 -20.45227,-21.54985 m 194.44647,15.28336 4.40952,-17.64447 0.33821,0 4.4861,17.64447 -9.23383,0 z m -0.87425,-28.76718 c -5.68579,16.88508 -14.9962,49.72995 -14.9962,49.72995 l 10.02512,0 3.35021,-11.90124 14.2432,0 3.26726,11.90124 11.10357,0 c 0,0 -9.57204,-33.14479 -14.8941,-49.72995 l -12.09906,0 z m -30.40081,32.60876 -0.33183,0.0702 c -0.58704,-1.99737 -17.28068,-32.67895 -17.28068,-32.67895 l -11.36521,0 0,49.72995 9.82092,0 0.0255,-34.32534 0.33821,-0.0702 18.02097,34.39553 10.61858,0 0,-49.72995 -9.82091,0 -0.0255,32.60876 z m -50.67439,17.12119 10.90575,0 0,-49.72995 -10.90575,0 0,49.72995 z m -26.15082,-49.72995 -10.09531,37.17143 -0.33821,0 -10.67602,-37.17143 -12.31603,0 c -1.93355,16.68088 -4.52438,49.72995 -4.52438,49.72995 l 9.17001,0 2.78228,-34.46573 0.33821,0 9.79539,34.46573 10.31866,0 9.49546,-34.46573 0.33822,0 2.13137,34.46573 10.47182,0 c 0,0 -2.49512,-33.14479 -4.35209,-49.72995 l -12.53938,0 z m -58.12782,49.72995 10.93128,0 0,-49.72995 -10.93128,0 0,49.72995 z m -57.24715,-19.04837 c 0,7.38324 -2.55255,9.73796 -8.76161,9.73796 -6.41965,0 -8.41064,-2.11223 -8.41064,-9.73796 l 0,-30.68158 -10.93127,0 0,29.13729 c 0,16.08742 7.31304,21.32652 19.19514,21.32652 13.42,0 19.25256,-7.68955 19.25256,-21.32652 l 0,-29.13729 -10.34418,0 0,30.68158 z"
       id="path4023"
       style="fill:#231f20;fill-opacity:1;fill-rule:nonzero;stroke:none" />
  </g>
</svg>
